<mxfile host="app.diagrams.net" modified="2023-04-27T21:45:32.342Z" agent="Mozilla/5.0 (Windows NT 10.0; Win64; x64) AppleWebKit/537.36 (KHTML, like Gecko) Chrome/112.0.0.0 Safari/537.36" version="21.2.1" etag="ZVccOg0FzWpbnxKLy3Ax" type="github">
  <diagram name="PÃ¡gina-1" id="1NiJSY6VPNKQ8N-ndYxb">
    <mxGraphModel>
      <root>
        <mxCell id="0" />
        <mxCell id="1" parent="0" />
      </root>
    </mxGraphModel>
  </diagram>
</mxfile>
